# xmcd CD database file
#
# Track frame offsets:
#	150
#	24299
#	37663
#	62214
#	75343
#	93612
#	113561
#	133625
#	152199
#	174516
#	190587
#	207999
#	233988
#
# Disc length: 3450 seconds
#
# Revision: 0
# Processed by: cddbd v1.4PL0 Copyright (c) Steve Scherf et al.
# Submitted via: CDex 1.50beta10
#
DISCID=9b0d780d
DTITLE=Compay Segundo - Calle Salud
DYEAR=1999
DGENRE=Salsa
TTITLE0=Saludo a chango
TTITLE1=Amor gigante
TTITLE2=Una rosa de Francia
TTITLE3=Maria en la playa
TTITLE4=Versos para ti
TTITLE5=La enganadora
TTITLE6=Viejos sones de Santiago
TTITLE7=El dia que me quieras
TTITLE8=Se perdio la flauta
TTITLE9=Morir de amor
TTITLE10=Lagrimas negras
TTITLE11=Balcon de santiago
TTITLE12=Chan chan
EXTD=YEAR: 1999
EXTT0=
EXTT1=
EXTT2=
EXTT3=
EXTT4=
EXTT5=
EXTT6=
EXTT7=
EXTT8=
EXTT9=
EXTT10=
EXTT11=
EXTT12=
PLAYORDER=
